<svg id="Capa_1" enable-background="new 0 0 512 512" height="512" viewBox="0 0 512 512" width="512" xmlns="http://www.w3.org/2000/svg"><g><g><path d="m457 512h-402c-30.327 0-55-24.673-55-55v-402c0-30.327 24.673-55 55-55h402c30.327 0 55 24.673 55 55v402c0 30.327-24.673 55-55 55z" fill="#fff47d"/></g><g><path d="m457 0h-201v512h201c30.327 0 55-24.673 55-55v-402c0-30.327-24.673-55-55-55z" fill="#ffdd54"/></g><g><path d="m81 196h350v240h-350z" fill="#f9f9f9"/></g><g><path d="m256 196h175v240h-175z" fill="#e2dff4"/></g><g><g><g><path d="m190.474 136c-5.523 0-10-4.477-10-10v-69.869c0-4.376 2.846-8.245 7.024-9.547 4.179-1.301 8.718.263 11.205 3.864l30.543 44.229-.373-38.58c-.053-5.522 4.38-10.043 9.903-10.096 5.489-.067 10.042 4.38 10.096 9.903l.654 67.641c0 5.372-3.025 9.725-7.708 11.188-4.598 1.437-9.437-.332-12.327-4.505l-29.017-42.018v37.79c0 5.523-4.477 10-10 10z" fill="#ff8659"/></g></g><g><g><path d="m152 136c-5.523 0-10-4.477-10-10v-70c0-5.523 4.477-10 10-10s10 4.477 10 10v70c0 5.523-4.477 10-10 10z" fill="#ff8659"/></g></g><path d="m117.82 85.348c2.296-3.885 3.62-8.41 3.62-13.241 0-14.395-11.711-26.107-26.107-26.107h-20.333c-5.523 0-10 4.477-10 10v70c0 2.66 1.06 5.21 2.945 7.087 1.874 1.866 4.411 2.913 7.055 2.913h.044c.002 0 18.689-.083 23.84-.083 15.903 0 28.842-12.938 28.842-28.842 0-8.66-3.842-16.436-9.906-21.727zm-22.487-19.348c3.367 0 6.107 2.74 6.107 6.107 0 3.368-2.74 6.107-6.107 6.107-1.475 0-10.333.019-10.333.019v-12.233zm3.551 49.917c-2.582 0-8.553.021-13.884.042v-17.715c1.025-.004 13.884-.011 13.884-.011 4.875 0 8.842 3.967 8.842 8.842s-3.966 8.842-8.842 8.842z" fill="#ff8659"/><g><g><path d="m308.893 136c-24.813 0-45-20.187-45-45s20.187-45 45-45c9.017 0 17.719 2.66 25.167 7.691 4.576 3.092 5.78 9.308 2.688 13.884-3.091 4.576-9.308 5.781-13.884 2.688-4.129-2.788-8.96-4.263-13.971-4.263-13.785 0-25 11.215-25 25s11.215 25 25 25c10.75 0 16.509-6.719 18.884-15h-9.61c-5.523 0-10-4.477-10-10s4.477-10 10-10h20.94c5.523 0 10 4.477 10 10 0 26.495-16.537 45-40.214 45z" fill="#ff4a4a"/></g></g><g><path d="m405 136c-24.813 0-45-20.187-45-45s20.187-45 45-45 45 20.187 45 45-20.187 45-45 45zm0-70c-13.785 0-25 11.215-25 25s11.215 25 25 25 25-11.215 25-25-11.215-25-25-25z" fill="#ff4a4a"/></g></g><g><path d="m151 436c-6.235-5.455-6.866-14.932-1.411-21.166l50.245-57.423c5.455-6.234 14.931-6.866 21.166-1.411 6.235 5.455 6.866 14.932 1.411 21.166l-50.245 57.423c-5.455 6.234-14.931 6.866-21.166 1.411z" fill="#ff8659"/></g><g><path d="m291 356c-6.235-5.455-6.866-14.932-1.411-21.166l50.245-57.423c5.455-6.234 14.931-6.866 21.166-1.411 6.235 5.455 6.866 14.932 1.411 21.166l-50.245 57.423c-5.455 6.234-14.931 6.866-21.166 1.411z" fill="#ff4a4a"/></g><g><path d="m151 276c-6.235-5.455-6.866-14.932-1.411-21.166l50.245-57.423c5.455-6.234 14.931-6.866 21.166-1.411 6.235 5.455 6.866 14.932 1.411 21.166l-50.245 57.423c-5.455 6.234-14.931 6.866-21.166 1.411z" fill="#ff8659"/></g><path d="m431 181h-350c-8.284 0-15 6.716-15 15v240c0 8.284 6.716 15 15 15h350c8.284 0 15-6.716 15-15v-240c0-8.284-6.716-15-15-15zm-335 110h40v50h-40zm70 0h40v50h-40zm70 0h40v50h-40zm70 0h40v50h-40zm70 0h40v50h-40zm40-30h-40v-50h40zm-70 0h-40v-50h40zm-70 0h-40v-50h40zm-70 0h-40v-50h40zm-110-50h40v50h-40zm0 160h40v50h-40zm70 0h40v50h-40zm70 0h40v50h-40zm70 0h40v50h-40zm110 50h-40v-50h40z" fill="#5e54ac"/><g><path d="m431 181h-175v30h20v50h-20v30h20v50h-20v30h20v50h-20v30h175c8.284 0 15-6.716 15-15v-240c0-8.284-6.716-15-15-15zm-85 240h-40v-50h40zm0-80h-40v-50h40zm0-80h-40v-50h40zm70 160h-40v-50h40zm0-80h-40v-50h40zm0-80h-40v-50h40z" fill="#453d81"/></g></g></svg>