<svg height="512" viewBox="0 0 64 64" width="512" xmlns="http://www.w3.org/2000/svg"><g id="flat"><path d="m30 7c9 0 9-4 9-4 6.5 6.5 2 10 2 10h-18c0-4 1-6 7-6z" fill="#394d5c"/><path d="m36.316 14.949-.632-1.9.316.951-.322-.947a3.438 3.438 0 0 0 2.322-3.053h2c0 3.678-3.533 4.9-3.684 4.949z" fill="#143441"/><path d="m23 13h18v20h-18z" fill="#ffd782"/><path d="m36 16h2v2h-2z" fill="#394d5c"/><path d="m26 16h2v2h-2z" fill="#394d5c"/><path d="m41 25a4 4 0 0 0 0-8z" fill="#f9bb4b"/><path d="m23 17a4 4 0 0 0 0 8z" fill="#f9bb4b"/><path d="m31 18h2v4h-2z" fill="#394d5c"/><path d="m32 25a4 4 0 0 1 4 4v2a0 0 0 0 1 0 0h-8a0 0 0 0 1 0 0v-2a4 4 0 0 1 4-4z" fill="#dd3e46" transform="matrix(-1 0 0 -1 64 56)"/><path d="m22 37h20v24h-20z" fill="#195c85"/><path d="m30 37h4v4h-4z" fill="#b11e48"/><path d="m30 37h-4v7l4-3z" fill="#da1c4b"/><path d="m34 37h4v7l-4-3z" fill="#da1c4b"/><path d="m38 44-5 9.17-1 1.83-1-1.83-5-9.17 4-3h4z" fill="#f4f4e6"/><path d="m33 41v12.17l-1 1.83-1-1.83v-12.17z" fill="#87cee9"/><path d="m22 37-9 9h-4v6h6l7-7z" fill="#f4f4e6"/><path d="m42 37 9 9h4v6h-6l-7-7z" fill="#f4f4e6"/><path d="m9 52h-6v-3l3-3h3z" fill="#ffd782"/><path d="m61 52h-6v-6h3l3 3z" fill="#ffd782"/><path d="m3 26h6v8h-6z" fill="#f4f4e6"/><path d="m55 17h6v8h-6z" fill="#f4f4e6"/><path d="m9 8h6v8h-6z" fill="#f4f4e6"/><g fill="#92cdde"><path d="m3 38h2v6h-2z"/><path d="m7 37h2v6h-2z"/><path d="m14 21h2v6h-2z"/><path d="m10 19h2v4h-2z"/><path d="m59 28h2v6h-2z"/><path d="m55 29h2v8h-2z"/></g></g></svg>