<svg id="Layer_1" enable-background="new 0 0 512 512" height="512" viewBox="0 0 512 512" width="512" xmlns="http://www.w3.org/2000/svg"><g><g clip-rule="evenodd" fill-rule="evenodd"><path d="m213.663 71.857h49.749l-63.326 280.663h-55.759l62.023-274.82c.879-3.913 4.082-5.843 7.313-5.843z" fill="#c32430"/><path d="m138.062 77.699c-.736-3.316-3.345-5.842-7.314-5.842h-43.766c-4.054 0-5.527 2.072-4.678 5.842l62.022 274.82h55.759z" fill="#da4a54"/><path d="m137.637 322.898 6.689 29.621h55.759l-7.54-33.477c-6.576-1.305-13.38-1.984-20.324-1.984-12.132.001-23.754 2.071-34.584 5.84z" fill="#e81e2b"/><path d="m172.221 496.664c41.186 0 74.778-33.619 74.778-74.807s-33.592-74.779-74.778-74.779c-41.218 0-74.808 33.592-74.808 74.779s33.591 74.807 74.808 74.807z" fill="#ffd064"/><path d="m245.951 409.355c.681 4.082 1.049 8.25 1.049 12.502 0 41.301-33.478 74.807-74.778 74.807-41.331 0-74.808-33.506-74.808-74.807 0-4.252.368-8.42 1.049-12.502 5.952 35.35 36.709 62.307 73.759 62.307 37.048 0 67.776-26.957 73.729-62.307z" fill="#ffc250"/><path d="m172.221 347.078c2.522 0 5.017.113 7.482.367v10.064c0 4.139-3.345 7.484-7.482 7.484-4.168 0-7.513-3.346-7.513-7.484v-10.064c2.468-.254 4.962-.367 7.513-.367zm30.727 6.576c4.593 2.068 8.93 4.592 12.955 7.482l-5.046 8.732c-2.069 3.572-6.634 4.791-10.205 2.723-3.571-2.07-4.818-6.662-2.721-10.236zm12.955 128.922c-4.025 2.891-8.362 5.414-12.955 7.482l-5.017-8.701c-2.098-3.572-.85-8.164 2.721-10.234 3.571-2.068 8.136-.85 10.205 2.723zm-36.199 13.719c-2.466.227-4.96.369-7.482.369-2.552 0-5.046-.143-7.513-.369v-10.092c0-4.139 3.345-7.482 7.513-7.482 4.138 0 7.482 3.344 7.482 7.482zm-38.24-6.236c-4.564-2.068-8.9-4.592-12.954-7.482l5.046-8.73c2.069-3.572 6.633-4.791 10.233-2.723 3.572 2.07 4.791 6.662 2.722 10.234zm-29.962-24.52c-2.92-4.025-5.442-8.361-7.512-12.926l8.73-5.045c3.572-2.07 8.136-.852 10.233 2.721 2.069 3.572.851 8.164-2.75 10.232zm-13.72-36.17c-.227-2.467-.368-4.99-.368-7.512 0-2.523.142-5.018.368-7.484h10.063c4.139 0 7.512 3.346 7.512 7.484 0 4.139-3.373 7.512-7.512 7.512zm6.208-38.24c2.069-4.592 4.592-8.928 7.512-12.953l8.702 5.018c3.601 2.068 4.819 6.66 2.75 10.232-2.098 3.572-6.661 4.791-10.233 2.721zm24.52-29.992c4.054-2.891 8.391-5.414 12.954-7.482l5.047 8.701c2.069 3.574.851 8.166-2.722 10.236-3.601 2.068-8.164.85-10.233-2.723z" fill="#ff9838"/></g><path d="m190.022 447.455c4.11-.057 7.512 3.26 7.568 7.398.029 4.109-3.26 7.512-7.398 7.539-.085 0-32.939.426-35.631-.482-4.904-1.643-6.917-4.279-4.989-10.006.113-.34.227-.652.397-.963.708-1.531 1.955-3.147 4.194-6.096 3.431-4.479 9.667-12.67 19.814-27.127 1.644-2.381 2.92-4.508 3.855-6.463.878-1.787 1.474-3.402 1.843-4.877l.17-1.275c-.057-2.465-1.078-4.676-2.693-6.264-1.645-1.672-3.94-2.693-6.491-2.693-2.239 0-4.252.766-5.812 2.041-1.615 1.332-2.777 3.203-3.174 5.33-.794 4.053-4.734 6.717-8.788 5.924-4.082-.793-6.719-4.734-5.925-8.787 1.105-5.584 4.139-10.518 8.391-14.004 4.195-3.43 9.525-5.498 15.308-5.498 6.689 0 12.727 2.691 17.093 7.057 4.393 4.394 7.087 10.432 7.087 17.094h-.028c0 .313-.028.623-.057.963l-.256 2.07c-.027.396-.085.793-.17 1.162-.595 2.551-1.587 5.301-3.061 8.334-1.305 2.637-2.949 5.441-5.047 8.418-6.888 9.838-11.848 16.641-15.42 21.432 8.704-.086 19.164-.227 19.22-.227z" fill="#ff8709"/><path clip-rule="evenodd" d="m369.855 0h55.219c3.94 0 5.527 2.012 4.592 5.84l-78.917 332.451h-67.21l78.945-332.451c.936-3.969 3.857-5.84 7.371-5.84z" fill="#d82e3d" fill-rule="evenodd"/><path clip-rule="evenodd" d="m271.832 5.84c-.822-3.488-3.403-5.84-7.399-5.84h-55.192c-3.826 0-5.499 2.068-4.62 5.84l78.918 332.451h67.21z" fill="#dd636e" fill-rule="evenodd"/><path clip-rule="evenodd" d="m276.537 308.754 7.002 29.537h67.21l-8.021-33.846c-8.25-1.787-16.811-2.723-25.569-2.723-14.259.001-27.923 2.468-40.622 7.032z" fill="#da4a54" fill-rule="evenodd"/><path clip-rule="evenodd" d="m317.158 512c49.636 0 90.143-40.478 90.143-90.143 0-49.635-40.507-90.143-90.143-90.143-49.664 0-90.143 40.508-90.143 90.143 0 49.665 40.479 90.143 90.143 90.143z" fill="#fff0af" fill-rule="evenodd"/><path clip-rule="evenodd" d="m406.422 409.355c.567 4.082.879 8.25.879 12.502 0 49.777-40.365 90.143-90.143 90.143-49.806 0-90.143-40.365-90.143-90.143 0-4.252.283-8.42.851-12.502 6.095 43.881 43.738 77.642 89.292 77.642 45.553.001 83.198-33.761 89.264-77.642z" fill="#ffe07d" fill-rule="evenodd"/><path clip-rule="evenodd" d="m317.158 331.715c2.523 0 5.018.113 7.483.311v12.273c0 4.139-3.345 7.484-7.483 7.484s-7.512-3.346-7.512-7.484v-12.273c2.466-.198 4.989-.311 7.512-.311zm38.438 8.588c4.535 2.154 8.872 4.648 12.955 7.484l-6.124 10.629c-2.069 3.572-6.661 4.791-10.233 2.721-3.571-2.068-4.79-6.633-2.721-10.203zm35.632 30.162c2.835 4.082 5.329 8.42 7.483 12.926l-10.658 6.152c-3.571 2.068-8.136.82-10.177-2.75-2.068-3.572-.821-8.137 2.75-10.205zm15.761 43.908c.198 2.467.311 4.961.311 7.484 0 2.522-.113 5.018-.311 7.512h-12.275c-4.139 0-7.482-3.373-7.482-7.512s3.344-7.484 7.482-7.484zm-8.277 45.951c-2.154 4.535-4.648 8.844-7.483 12.926l-10.602-6.123c-3.571-2.07-4.818-6.633-2.75-10.205 2.041-3.572 6.605-4.791 10.177-2.75zm-30.16 35.604c-4.083 2.834-8.42 5.357-12.928 7.482l-6.15-10.629c-2.069-3.602-.822-8.164 2.75-10.205 3.571-2.07 8.135-.822 10.204 2.75zm-43.911 15.762c-2.466.197-4.96.31-7.483.31s-5.046-.113-7.512-.31v-12.248c0-4.166 3.373-7.512 7.512-7.512s7.483 3.346 7.483 7.512zm-45.95-8.28c-4.535-2.125-8.844-4.648-12.926-7.482l6.123-10.602c2.041-3.572 6.633-4.82 10.204-2.75 3.571 2.041 4.791 6.603 2.75 10.205zm-35.603-30.16c-2.834-4.082-5.357-8.391-7.483-12.926l10.63-6.152c3.601-2.041 8.164-.822 10.205 2.75 2.069 3.572.822 8.135-2.75 10.205zm-15.76-43.881c-.228-2.494-.313-4.99-.313-7.512 0-2.523.085-5.018.313-7.484h12.245c4.139 0 7.512 3.346 7.512 7.484 0 4.139-3.373 7.512-7.512 7.512zm8.276-45.978c2.126-4.506 4.649-8.844 7.483-12.926l10.602 6.123c3.572 2.068 4.819 6.633 2.75 10.205-2.041 3.57-6.604 4.818-10.205 2.75zm30.161-35.604c4.082-2.836 8.391-5.33 12.954-7.484l6.123 10.631c2.069 3.57.851 8.135-2.722 10.203-3.571 2.07-8.164.852-10.232-2.721z" fill="#ffc250" fill-rule="evenodd"/><path d="m308.003 386.537c-4.139 0-7.512-3.344-7.512-7.482 0-4.168 3.373-7.512 7.512-7.512h18.312c4.139 0 7.483 3.344 7.483 7.512v85.635c0 4.139-3.345 7.482-7.483 7.482-4.139 0-7.512-3.344-7.512-7.482v-78.152h-10.8z" fill="#ff8709"/></g></svg>