<svg xmlns="http://www.w3.org/2000/svg" enable-background="new 0 0 50 50" viewBox="0 0 50 50"><path fill="#EFEEEE" d="M39.7813,25.7227c-4.9094-1.2273-4.5684-1.0438-5.53-2.34c-1.8415-2.4463-5.042-2.829-5.28-3.29
		C36.8413,18.3728,39.5612,23.5728,39.7813,25.7227z"/><path fill="#EFEEEE" d="M41.2213,32.6027c-1.37-0.44-2.69-1.13-4.12-1.29c0.1-1.52-0.4-3.08-1.38-4.26
		c-0.62-0.75-1.44-1.34-2.34-1.72c-0.21-0.09-1.17-0.23-1.19-0.5099c-0.01-0.28,1.06-0.2,1.29-0.2c2.15,0,4.2401,0.57,6.3101,1.22
		c0.0099,0.14,0.0099,0.26,0,0.36C41.5877,27.5999,41.6144,30.3728,41.2213,32.6027z"/><ellipse cx="16.623" cy="34.544" fill="#71C17F" rx="8.666" ry="13.803"/><path fill="#FFF" d="M36.2512,39.6627l-0.05,0.04c2.17,0.41,3.74,1.93,4.03,3.62c0.6,3.27-3.6,7.13-17.43,4.5099
			c-10.3879-3.7684-12.3339-14.3866-7.08-21.5099c1.5552-2.0949,5.4301-4.7037,4.83-10.65c-0.5504-5.6773-1.9285-7.8618-1.67-10.98
			c0.3949-4.8657,6.4661-4.0314,8.69-0.64c1.7041,2.5559,2.5873,11.2509,0.79,16.17c7.7275-1.8392,11.7337,2.9267,11.4301,5.98
			c1.9808,1.5406,1.7004,4.366,1.37,6.85C43.2838,35.6223,41.5955,40.0907,36.2512,39.6627z"/><path fill="#EFEEEE" d="M22.8012,47.8327c-3.17-1.15-6.09-3.17-7.9-6.02c-2.95-4.63-2.44-11.07,0.82-15.49
			c0.49-0.66,1.03-1.28,1.62-1.85c2.36-2.28,3.54-5.53,3.21-8.8c-0.16-1.65-0.42-3.28-0.78-4.89c-0.45-2.01-1.06-4.04-0.89-6.09
			c0.03-0.37,0.09-0.75,0.2-1.1c0.01,0.02,0.03,0.03,0.04,0.04c4.25,3.59,6.35,9.65,4.94,15.03
			c-1.6281,6.2443-8.1207,11.931-6.66,18.72c0.97,4.49,5.51,7.51,10.07,8.12c4.6637,0.6143,10.4107-0.7051,12.7599-2.18
			C40.8313,46.5927,36.6312,50.4528,22.8012,47.8327z"/><path fill="#EFEEEE" d="M36.9912,39.7028c-0.52-0.07-1.05-0.14-1.57-0.22c2.4875-1.1976,3.2433-4.8362,0.73-6.84
			c-0.24-0.19-1.83-0.8101-1.58-1.23c0.26-0.41,2.62-0.01,3.07,0.04C43.9395,32.1758,43.2822,39.7028,36.9912,39.7028z"/><path d="M42.5395,35.5659c0.02-0.92-0.26-1.8-0.78-2.55c0.1947-0.3894,0.9503-5.0328-1.46-7.04c-0.02-1.09-0.74-3.3-2.74-4.9
			c-1.5-1.2-4.15-2.4-8.45-1.53c0.8701-2.9901,0.97-6.88,0.28-11.6c-0.18-1.22-0.5-2.81-1.4-4.17c-1.29-1.97-3.73-3.16-6.0699-2.96
			c-2.0092,0.1848-3.3194,1.2656-3.54,3.84c-0.1706,2.1928,0.4742,4.2833,0.9,6.23c0.9032,3.9643,1.2857,6.9181-0.03,9.95
			c-0.83-0.39-1.71-0.6-2.63-0.6c-5.05,0-9.16,6.42-9.16,14.3101c0,7.8799,4.11,14.3,9.16,14.3c1.43,0,2.78-0.51,3.98-1.42
			c0.7254,0.3744,1.6912,0.7675,2.03,0.88c0.1024,0,4.2162,0.9,8.31,0.9c6.19,0,8.43-1.97,9.19-3.03c0.9-1.2599,0.96-2.78,0.18-4.16
			c-0.44-0.77-1.09-1.41-1.88-1.87C40.7395,39.7259,42.4995,37.8259,42.5395,35.5659z M16.6195,47.8459c-4.5,0-8.16-5.97-8.16-13.3
			c0-7.34,3.66-13.3101,8.16-13.3101c0.76,0,1.5,0.17,2.2,0.4901c-1.1275,2.0672-2.0205,2.3176-3.5,4.3
			c-3.5,4.74-3.84,11.34-0.84,16.06c1.21,1.91,2.99,3.56,5.15,4.82C18.6995,47.5159,17.6895,47.8459,16.6195,47.8459z
			 M37.2095,39.2159c-0.91-0.06-1.82-0.09-2.74-0.11c-0.29-0.03-0.5,0.21-0.5,0.49c0,0.12,0.04,0.24,0.1,0.32
			c0.05,0.23,0.27,0.39,0.52,0.37c2.08-0.17,3.98,0.69,4.85,2.22c0.58,1.03,0.54,2.16-0.13,3.09
			c-2.637,3.7142-14.5877,3.0377-18.8,0.65c-2.19-1.2-3.99-2.82-5.19-4.7c-2.78-4.3701-2.45-10.51,0.8-14.9301
			c1.6194-2.1706,2.6855-2.3353,4.02-5.29c1.491-3.3833,1.0178-6.6095,0.12-10.65c-0.5193-2.1412-1.0226-4.1408-0.88-5.94
			c0.1555-1.9951,1.0397-2.7785,2.62-2.92c1.99-0.17,4.06,0.84,5.16,2.51c0.61,0.93,0.99,2.1,1.24,3.77
			c0.73,5.01,0.56,9.03-0.51,11.96c-0.07,0.17-0.03,0.37,0.1,0.5c0.12,0.14,0.31,0.2,0.4901,0.15c3.5-0.88,6.42-0.49,8.46,1.15
			c1.35,1.08,2,2.44,2.25,3.37c-1.71-0.86-4.27-1.15-7.86-0.88c-0.28,0.02-0.48,0.26-0.46,0.53c0.02,0.28,0.26,0.48,0.53,0.46
			c8.8129-0.641,10.026,2.1001,9.49,6.74c-0.88-0.71-2.03-1.11-3.25-1.08c-1.15,0.01-2.72,0.08-4.11,0.18
			c-0.28,0.01-0.49,0.25-0.47,0.53c0.02,0.27,0.27,0.48,0.53,0.46c1.38-0.09,2.93-0.16,4.09-0.17c1.06-0.02,2.14,0.4,2.87,1.13
			c0.65,0.65,1.01,1.52,0.9901,2.42C41.5063,37.7573,39.3415,39.41,37.2095,39.2159z"/></svg>