<?xml version="1.0" encoding="utf-8"?>
<!-- Generator: Adobe Illustrator 22.0.1, SVG Export Plug-In . SVG Version: 6.00 Build 0)  -->
<svg version="1.1" id="Layer_1" xmlns="http://www.w3.org/2000/svg" xmlns:xlink="http://www.w3.org/1999/xlink" x="0px" y="0px"
	 viewBox="0 0 2230 1322.9" style="enable-background:new 0 0 2230 1322.9;" xml:space="preserve">
<style type="text/css">
	.st0{fill:#2BC600;}
	.st1{fill:#E11B3B;}
</style>
<title>Bingo Matrix Export</title>
<path class="st0" d="M-4.8-11.2c54,0,106.5-0.1,159,0.4c3,0,7.2,4.8,8.9,8.3c26.8,55.6,53.5,111.2,79.9,167
	c8.3,17.4,16.4,34.8,25.5,53.9c2.5-4.4,4.3-7.2,5.8-10.2c20.8-42.2,41.7-84.5,62.4-126.7c12.8-26.1,25.6-52.2,38-78.6
	c2.7-5.9,5.8-8.4,12.5-8.3c28.1,0.4,56.2,0.2,85.3,0.2c0.7,9,2,19.4,2.2,29.8c0.9,47.8,1.3,95.7,2.1,143.5c0.3,19.5,1.5,39,1.9,58.6
	c0.8,35.8,1.3,71.7,2.1,107.5c0.5,26.5,1.3,53,2,79.5c0.7,28.9,1.2,57.7,2.1,86.5c0.2,6.2,1.6,12.3,2.5,19.4H383.8
	c-0.4-1.1-0.7-2.1-0.8-3.3c-0.7-38.2-1.7-76.3-2-114.5c-0.3-51.1-0.1-102.2-0.1-153.2l-3.3-0.2c-20.5,68.6-41,137.2-61.8,206.9
	L218,444c-22.5-72.2-45.1-144.9-67.7-217.6l-2.2,0.2v293H42.7c0.6-11.9,1.2-24,1.9-36c0.2-3.3,0.5-6.6,0.6-9.9
	c0.7-42.8,1.3-85.7,2.1-128.5c0.5-24.2,1.3-48.4,2-72.5c0.7-24.8,1.3-49.7,2-74.5c0.6-19.5,1.2-39,2-58.6c0.2-5.3-1.1-7.8-7.3-9.3
	c-18.3-4.5-36.3-10.2-54.2-16c-2.1-0.7-4.4-5-4.3-7.4c1.6-24.6,3.8-49.2,5.5-73.8C-6,18.1-5.5,2.9-4.8-11.2z"/>
<path class="st0" d="M1675.2,185c42.6-11.9,67.5-34.3,54.8-91.1l255.8,171.5l125-203.1c27.6,19.1,54.7,37.7,81.5,56.8
	c1.6,1.2,1.9,7.2,0.4,9.3c-26.9,39.3-53.5,78.8-81.5,117.4c-15.9,22-33.6,42.8-51.4,63.3c-5.7,6.6-5,10.9-0.1,16.3
	c17.1,19.2,34.4,38.2,51.4,57.6c22.8,25.9,45.4,52.1,68.2,78.1c9.7,11.1,19.5,22,30.3,34c-27.8,8.2-53.5,15.9-79.3,23.4
	c-17.2,4.9-34.7,8.8-51.6,14.4c-6.2,2.1-8.8-0.6-11.4-4.1c-21.8-29-43.5-58.1-65-87.2c-6.4-8.6-12.4-17.5-19.6-27.7
	c-5.3,8.2-10.2,15.6-14.9,23.1c-22.6,36.3-45.2,72.5-67.6,108.9c-3.5,5.7-6.5,7.2-13.5,5.5c-9.5-2.3-19.6-2.1-29.4-2.7
	c-23-1.4-46.1-2.6-69.1-4.1c-6.5-0.4-13-1.7-21.9-3l131.8-203.5L1675.2,185z"/>
<path class="st0" d="M860.9,512l-75.2,8.3c-1.7-13.6-3.3-26.9-5.3-43.4c-14.6,34.4-45.4,37.2-73.2,42.9c-22.4,4.6-45.7,6.4-68.5,6
	c-19.4-0.3-38.8-4.8-58-8.7c-24.7-5-32.8-24.7-37.8-46.2c-7.1-30.4-5.1-60.6,1.1-90.9c2.5-12.3,5.9-23.8,14-33.8
	c10-12.4,25-14.6,38.6-17c25.4-4.5,51.4-8.5,77.1-8c28.6,0.5,57.1,6.3,87.1,9.9c-0.6-6.3-1-13.6-2.1-20.8
	c-2.5-15.4-4.4-31.1-8.4-46.1c-4.8-17.9-18.2-26-36.3-27.8c-13-1.3-25.9-3.5-38.7-5.7c-18.7-3.2-36.1,11.1-38.4,32
	c-0.5,4.6-1.4,9-2,13.6c-2,16.3-2,16.8-18.3,16.2c-22.1-0.8-44.1-2.4-67.6-3.7c0-8.6-0.6-16.9,0.1-24.9c2.3-24.1,3.7-48.5,8.2-72.2
	c6.3-33.4,20.6-46.7,53-48.7c35.6-2.2,71.4-4.3,107.1-3.7c23.2,0.4,47.1,0.7,68.7,13.1c13.2,7.4,23.4,19.3,28.8,33.5
	c9.1,23.4,10.8,48.3,14,72.8c3,22.4,6.5,44.6,9.4,67c2.4,18.2,4.3,36.4,6.6,54.6c2.4,19.2,5.1,38.2,7.5,57.4
	c2.3,18.2,4.3,36.4,6.4,54.7C859.4,498.7,860.1,505.1,860.9,512z M676.7,470.6c25,1.2,44.5-8,59.7-24.4c20-21.6,13.2-52.8-15.2-61.4
	c-11.4-3.5-23.7-6.1-35.5-5.8c-19.6,0.6-39.2,2.6-58.6,6.1c-8.9,1.6-20,5.4-24.8,12c-14.2,19.6-10.3,49.2,14.4,61.3
	C634.9,467.3,654.4,470.8,676.7,470.6z"/>
<path class="st0" d="M1167,174.9h-79.6c-0.9,9.9-2.2,21.6-2.7,33.4c-1,20.8-1.2,41.7-2.1,62.6c-1.8,41.3-3.8,82.5-6,123.8
	c-1.2,23.1-2.7,46.1-3.9,69.2c-0.8,16.2-1.3,32.4-2.1,48.6c-0.2,5.1-2.1,8.4-8.4,8.3c-24.7-0.3-49.3-0.1-74.4-0.1
	c-1-11.4-2.5-22.4-3-33.4c-1-20.2-1.2-40.4-2.1-60.6c-1.8-39.3-3.9-78.5-6-117.8c-1.2-22.7-2.6-45.5-4-68.2
	c-0.5-7.5-1.6-15-2.5-23.6h-69.8V109.3l63.4-3.1V32.7l131.3-8.7c-1.5,26.7-2.8,52.2-4.2,77.7h76.4L1167,174.9z"/>
<path class="st0" d="M1212.4,142.8l134.9-4.6v33.7c54.9-20.1,112.3-22.8,171-20.8c-5.8,44.5-11.4,88.4-17.2,133.2
	c-32.5-9.1-64.8-14.2-97.5-13.4c-19.6,0.5-39.2,3.6-58.7,6c-2.3,0.3-5.9,3.7-6.2,5.9c-1.8,17.4-2.9,34.7-4.3,52.1
	c-2.6,30.8-5.3,61.6-7.9,92.4c-0.8,9.5-1.5,19.1-2.1,28.6c-1.4,21-2.7,42.1-4.1,63.4h-82.6c-1.1-11.2-2.5-21.2-3.1-31.3
	c-1.5-25-2.4-50.1-4.2-75.1c-2.3-33.1-5.2-66.2-7.8-99.4c-0.8-10.5-1.5-21-2-31.6c-1.4-25.4-2.5-50.8-4.1-76.2
	c-1.1-17.4-2.6-34.8-3.9-52.2C1212.2,150.4,1212.4,147.1,1212.4,142.8z"/>
<path class="st0" d="M1674.4,530.2h-111.2c-1-11.7-2.6-23.4-2.9-35.1c-0.9-41.8-1.4-83.7-2.1-125.5c-0.5-25.2-1.6-50.4-1.9-75.6
	c-0.3-22.1-0.1-44.2-0.1-67.8h139.9c-0.7,14.4-1.1,29.5-2.2,44.5c-0.8,10.8-2.9,21.4-3.7,32.2c-1.6,23.7-2.4,47.5-4.2,71.2
	c-2.3,31.8-5.2,63.6-7.8,95.4c-0.8,10.5-1.4,21-2.1,31.6C1675.5,510.5,1675,520,1674.4,530.2z"/>
<path class="st0" d="M2017.9,119.4c3.2,33.9-25.3,70.3-73.5,67.7c-29.4-1.6-64.6-25.6-62.7-70.8c1.6-37.1,29.9-65.5,68.7-65.6
	C1983.1,50.7,2020.4,77.3,2017.9,119.4z"/>
<path class="st1" d="M1631.5,52.8c31.6-1.3,56.3,24.4,56.2,55.6c-0.1,32-20.8,55.4-56.4,56.1c-29,0.6-57.6-20.1-55.7-60.4
	C1576.9,79.7,1599.6,50.3,1631.5,52.8z"/>
<path d="M180.8,661.4c18.5,1,35.3,2.4,52.1,2.8c19.6,0.5,39.3-0.1,58.9,0.2c26.5,0.4,53.2-0.3,79.5,2.3c40.2,4,80.3,8.7,117.5,27.3
	c29.3,14.7,44.5,39.1,50.1,69.5c6.8,37,2.5,73.1-15.6,107c-12.1,22.6-28.8,40.6-52.1,51.5c-20,9.4-40.7,17.5-61,26.2
	c-0.9,0.5-1.8,1-2.7,1.6c17.4,4.4,34.8,7,50.9,13.2c38.8,14.8,75.2,35.2,108,60.5c36.9,28.4,34.1,72.6,14.2,104.2
	c-20.8,33.2-53.3,48.3-89,58.1c-27.8,7.6-56.2,12.3-85.3,12.3c-17.2,0-34.4,1.5-51.6,1.8c-52.1,0.8-104.3,1.4-156.5,2.1
	c-3.2,0-6.4,0.8-10.3,1.3c-0.9-9.4-2.5-19.1-2.5-28.9c-0.2-77.9,0.1-155.8-0.2-233.8c-0.4-86.1-1.2-172.2-2-258.4
	C183.3,676.3,181.9,670.1,180.8,661.4z M446.5,876.4c1-5.3,2.5-9.7,2.6-14.2c0.9-25.8,1.4-51.7,2.2-77.5c0.2-5.5,1.9-11.1,1.5-16.5
	c-0.3-3.4-2.7-9-5-9.5c-13.7-2.8-27.7-4.5-41.6-6.4c-26.7-3.7-53.5-7.4-81.5-11.3c1.3,46.3,2.6,92.5,3.9,139.8L446.5,876.4z
	 M328.7,1140.3c9.9-0.8,20.3-0.3,30-2.6c30.3-7.3,60.5-14.9,90.3-24.1c14.9-4.5,28.3-13,38.5-24.7c9.4-10.8,12-18.8,1.3-28
	c-11.3-9.5-24.6-16.5-38.9-20.3c-24.8-6.6-50.3-10.5-75.8-14.3c-14.5-2.2-29.3-1.8-45.4-2.7V1140.3z"/>
<path d="M1490.9,838.9c-0.5-6.9-0.9-12.4-1.3-18.2c18.4-1.4,37.1-2.7,55.7-4.4c10.4-0.9,20.8-2.4,31.2-3.8c7.4-1,12,0.6,12.2,9.4
	c0.4,26.5,1.1,53,2,79.5c0.5,15.8,1.8,31.6,2.7,48.8l-102.8,8.9c0-18,0.3-34.1-0.3-50.2c-0.1-3.3-3.1-8.2-6-9.5
	c-38.1-16.6-68.6-15.9-101.6,10.6c-7.8,6.3-14.5,18.4-15.3,28.4c-2.5,29.5-0.5,59.3,11.9,86.9c9.1,20.1,25.2,25.7,47.4,23.4
	c20.6-2.1,41.6-0.4,63.5-0.4V1010c17.6-1.1,34.3-2.5,50.9-3c16.7-0.5,33.5-0.1,51-0.1c0,0.8,0.3,3.7,0.4,6.6
	c0.7,28.2,1.3,56.4,2,84.5c0.5,19.9,1.3,39.7,2,59.6c0.7,22.8,0.8,45.7,2.1,68.5c2.6,46-32.5,91-75.1,102
	c-7.2,1.8-14.7,3.6-22.1,3.7c-48.6,0.3-97.2,0.2-145.9,0.2h-72.2c6.1-43,11.7-83.1,17.6-124.6h88.3c-2.3,13.1-4.6,26.4-7.5,42.7
	c18,0,34.3-1.5,50.1,0.5c12.7,1.5,23.9,0,34.8-5.7c16.9-8.8,26.1-30.1,24.3-49.3c-1.6-17.5-0.4-35.3-0.4-52.9c0-3.9,0-7.8,0-12.6
	c-12.3,1.4-23.6,2.9-34.9,4.1c-19.9,2.1-40,2.8-59.7,6.4c-19.6,3.6-36.4-2.7-49.7-14.6c-13.7-12.3-24.9-27.8-35.8-42.9
	c-17.7-24.5-21.9-53.4-23.7-82.6c-1.5-24.8-3-49.7-1.8-74.5c1.3-28,4.8-55.8,22.4-79.8c10-13.7,23.5-21.2,39.1-23.3
	c21.5-2.9,43.3-3.5,65.1-4.3C1443.5,817.1,1463.4,822.1,1490.9,838.9z"/>
<path d="M965.3,1203.5H841.2c0.6-14,0.9-28,1.9-42c0.9-12.1,2.9-24.1,3.8-36.2c1.6-24,2.4-48.1,4.2-72.2c2.3-30.8,5.3-61.6,7.8-92.4
	c0.9-10.5,1.5-21,2.1-31.6c1.4-24,2.5-48.1,4.1-72.2c1.1-15.3,2.9-30.6,4.3-45.3h97.4c-0.8,12.5-1.6,23.6-2.4,35.8
	c12.1-4.9,22.7-10.7,34.1-13.6c19.2-4.8,38.7-9.4,58.4-11.2c24.8-2.2,49.6-2.9,74.5-2.1c28.1,0.9,54.6,9.5,74.5,30.2
	c19.4,20.2,28.5,44.9,23.1,73.6c-0.2,1.3-0.2,2.7-0.2,4c-0.7,28.5-1.2,57-2,85.5c-1.2,37.1-2.6,74.1-4,111.1
	c-0.6,15.9-1.1,31.7-2,47.6c-0.6,10.1-1.8,20.2-2.7,30.9h-87.1c0-6-0.3-12.2,0-18.3c1.9-33.6,3.9-67.2,6-100.8
	c1.3-20.4,2.7-40.8,3.9-61.2c0.9-15.2,2.1-30.4,1.9-45.6c-0.4-27.3-11.7-49.3-34.5-64.9c-4.7-3.2-10.6-6.2-16-6.2
	c-21.8-0.2-43.7,0.1-65.5,1.7c-24.9,1.9-37.5,19.6-45.6,40.7c-13.3,34.6-18.7,70.7-18.3,107.8c0.5,40.3,0,80.6,0.2,120.9
	C963.1,1186.1,964.5,1194.5,965.3,1203.5z"/>
<path d="M659.1,899.6h139.7c-0.6,13.6-1,27.9-2,42.3c-0.9,12.1-2.9,24.1-3.7,36.2c-1.6,24-2.5,48.1-4.1,72.2
	c-2.5,37.2-5.1,74.3-8,111.4c-1.1,13.7-2.7,27.4-4.2,41.8H665c-0.6-25.4-1.2-50.8-1.8-76.2c-0.7-28.2-1.3-56.4-2-84.6
	c-0.6-23.5-1.6-47-1.9-70.6C658.9,948.5,659.1,925.1,659.1,899.6z"/>
<path d="M728,852.3c-29.2,4.2-59.6-24-57.6-59.7c1.5-25.9,25.3-55.2,57.8-54.4c29.1,0.7,58.3,24.2,57.3,60.5
	C784.7,826.9,759.1,856.3,728,852.3z"/>
<path d="M1681.1,1141.9c-7.9-18.2-15-47.8-21.4-88.6c-6.4-40.9-9-82.3-7.8-123.7c1.2-41.6,8.5-68.3,21.8-80.1
	c30-27.1,74.6-42.8,133.7-47.3c38.3-3,76.8-0.6,114.5,7c37.9,7.6,62.3,19.6,73.1,35.8c12.8,19.2,19.8,43.7,21,73.5
	c1.2,30.3-2.1,60.7-9.6,90.1c-7.7,30.4-18.5,60-32.1,88.2c-13.3,27.1-27.1,49.2-41.4,66.5c-19.2,23.6-48,38.4-86.4,44.3
	c-38.4,5.9-72.8,2.2-103.3-11.1C1712.6,1184.2,1691.9,1166,1681.1,1141.9z M1875.3,862.8c-40.9-5.4-79.3-2.7-115.2,8.1
	c-32.5,10.8-42.3,52.7-29.5,125.5c4.4,26.1,15.5,44.9,33.2,56.5c17.7,11.6,42.3,18.1,73.8,19.6c40.4,1,69.8-17,88.2-53.9
	c18.5-36.9,19.6-74.8,3.3-113.7C1919.4,880.2,1901.4,866.2,1875.3,862.8L1875.3,862.8z"/>
</svg>
